<svg xmlns="http://www.w3.org/2000/svg" width="100%" height="auto" viewBox="0 0 1180 610">
  <defs>
    <!-- Background Base Gradient -->
    <linearGradient id="bgGrad" x1="0%" y1="0%" x2="100%" y2="100%">
      <stop offset="0%" stop-color="#020617" />
      <stop offset="100%" stop-color="#0b1329" />
    </linearGradient>

    <!-- Floating Glow Gradients -->
    <radialGradient id="glowBlue" cx="20%" cy="20%" r="50%">
      <stop offset="0%" stop-color="#38BDF8" stop-opacity="0.10" />
      <stop offset="100%" stop-color="#38BDF8" stop-opacity="0" />
    </radialGradient>
    <radialGradient id="glowSoftBlue" cx="80%" cy="80%" r="60%">
      <stop offset="0%" stop-color="#60A5FA" stop-opacity="0.08" />
      <stop offset="100%" stop-color="#60A5FA" stop-opacity="0" />
    </radialGradient>
    <radialGradient id="glowTeal" cx="50%" cy="50%" r="45%">
      <stop offset="0%" stop-color="#14B8A6" stop-opacity="0.05" />
      <stop offset="100%" stop-color="#14B8A6" stop-opacity="0" />
    </radialGradient>

    <!-- Shimmering Border Gradient (Ice Blue -> Soft Blue -> Teal) -->
    <linearGradient id="borderShimmer" x1="-100%" y1="-100%" x2="0%" y2="0%">
      <stop offset="0%" stop-color="rgba(255, 255, 255, 0.05)" />
      <stop offset="35%" stop-color="#38BDF8" stop-opacity="0.6" />
      <stop offset="50%" stop-color="#60A5FA" stop-opacity="0.6" />
      <stop offset="65%" stop-color="#14B8A6" stop-opacity="0.6" />
      <stop offset="100%" stop-color="rgba(255, 255, 255, 0.05)" />
      <animate attributeName="x1" values="-100%;100%" dur="10s" repeatCount="indefinite" />
      <animate attributeName="y1" values="-100%;100%" dur="10s" repeatCount="indefinite" />
      <animate attributeName="x2" values="0%;200%" dur="10s" repeatCount="indefinite" />
      <animate attributeName="y2" values="0%;200%" dur="10s" repeatCount="indefinite" />
    </linearGradient>

    <!-- Grid Pattern -->
    <pattern id="grid" width="40" height="40" patternUnits="userSpaceOnUse">
      <path d="M 40 0 L 0 0 0 40" fill="none" stroke="rgba(255, 255, 255, 0.012)" stroke-width="1" />
    </pattern>

    <!-- Noise Filter -->
    <filter id="noiseFilter">
      <feTurbulence type="fractalNoise" baseFrequency="0.65" numOctaves="3" stitchTiles="stitch" />
      <feColorMatrix type="matrix" values="0 0 0 0 0   0 0 0 0 0   0 0 0 0 0  0 0 0 0.03 0" />
    </filter>

    <!-- Standard Glow Filter (Subtle) -->
    <filter id="glow">
      <feGaussianBlur stdDeviation="2" result="blur" />
      <feMerge>
        <feMergeNode in="blur" />
        <feMergeNode in="SourceGraphic" />
      </feMerge>
    </filter>

    <!-- ASCII Cyber Gradient (Ice Blue -> Soft Cyan -> White) -->
    <linearGradient id="cyberGrad" x1="0%" y1="0%" x2="100%" y2="100%">
      <stop offset="0%" stop-color="#38BDF8" />
      <stop offset="60%" stop-color="#67E8F9" />
      <stop offset="100%" stop-color="#F8FAFC" />
      <animate attributeName="x1" values="0%;100%;0%" dur="12s" repeatCount="indefinite" />
      <animate attributeName="y1" values="0%;100%;0%" dur="12s" repeatCount="indefinite" />
    </linearGradient>

    <!-- Progress Bar Gradient (Sky Blue -> Soft Blue -> Teal) -->
    <linearGradient id="progressGrad" x1="0%" y1="0%" x2="100%" y2="0%">
      <stop offset="0%" stop-color="#38BDF8" />
      <stop offset="50%" stop-color="#60A5FA" />
      <stop offset="100%" stop-color="#14B8A6" />
    </linearGradient>

    <!-- Accent Gradient for contours -->
    <linearGradient id="accentGrad" x1="0%" y1="0%" x2="0%" y2="100%">
      <stop offset="0%" stop-color="#38BDF8" />
      <stop offset="100%" stop-color="#60A5FA" />
    </linearGradient>

    <!-- Reveal Mask for ASCII line-by-line reveal -->
    <mask id="asciiRevealMask">
      <rect x="0" y="0" width="450" height="0" fill="#ffffff">
        <animate attributeName="height" to="450" dur="2.8s" begin="0.4s" fill="freeze" keyTimes="0;1" calcMode="spline" keySplines="0.1 0.8 0.2 1" />
      </rect>
    </mask>

    <!-- Typewriter Masks for rotating roles -->
    <mask id="roleMask1">
      <rect x="505" y="170" width="0" height="35" fill="#ffffff">
        <animate attributeName="width" values="0;400;400;0;0" keyTimes="0;0.08;0.22;0.24;1" dur="12s" repeatCount="indefinite" />
      </rect>
    </mask>
    <mask id="roleMask2">
      <rect x="505" y="170" width="0" height="35" fill="#ffffff">
        <animate attributeName="width" values="0;0;400;400;0;0" keyTimes="0;0.25;0.33;0.47;0.49;1" dur="12s" repeatCount="indefinite" />
      </rect>
    </mask>
    <mask id="roleMask3">
      <rect x="505" y="170" width="0" height="35" fill="#ffffff">
        <animate attributeName="width" values="0;0;400;400;0;0" keyTimes="0;0.50;0.58;0.72;0.74;1" dur="12s" repeatCount="indefinite" />
      </rect>
    </mask>
    <mask id="roleMask4">
      <rect x="505" y="170" width="0" height="35" fill="#ffffff">
        <animate attributeName="width" values="0;0;450;450;0;0" keyTimes="0;0.75;0.83;0.97;0.99;1" dur="12s" repeatCount="indefinite" />
      </rect>
    </mask>

    <!-- Terminal Window Fade In Mask -->
    <mask id="terminalReveal">
      <rect x="480" y="40" width="660" height="530" fill="#ffffff" opacity="0">
        <animate attributeName="opacity" to="1" dur="1s" begin="0.2s" fill="freeze" />
      </rect>
    </mask>
  </defs>

  <style>
    .font-mono { font-family: "SF Mono", "Fira Code", Consolas, Menlo, monospace; }
    .font-sans { font-family: "Inter", -apple-system, BlinkMacSystemFont, "Segoe UI", Roboto, sans-serif; }
    
    /* Interactive Pills */
    .pill {
      transform-box: fill-box;
      transform-origin: center;
      transition: all 0.3s cubic-bezier(0.25, 0.8, 0.25, 1);
      cursor: pointer;
    }
    .pill:hover {
      filter: drop-shadow(0 0 4px rgba(56, 189, 248, 0.35));
    }
    .pill-bg {
      transition: fill 0.3s, stroke 0.3s;
    }
    .pill:hover .pill-bg {
      fill: rgba(255, 255, 255, 0.08);
      stroke: #38BDF8;
    }
    .pill-text {
      transition: fill 0.3s;
    }
    .pill:hover .pill-text {
      fill: #ffffff;
    }

    /* Pulse animation for build checkmarks */
    @keyframes pulse {
      0% { opacity: 0.4; }
      50% { opacity: 1; }
      100% { opacity: 0.4; }
    }
    .live-pulse {
      animation: pulse 2s infinite ease-in-out;
    }
    .contour-line { fill: none; stroke: url(#accentGrad); stroke-linecap: round; stroke-linejoin: round; }
    .contour-primary { stroke-width: 1.5; }
    .contour-secondary { stroke-width: 1.0; opacity: 0.6; }
    .contour-stubble { stroke-width: 1.0; stroke-dasharray: 2 3; opacity: 0.5; }
    .fill-dark { fill: #020617; }
    .fill-panel { fill: #0F172A; }
    .tech-text { font-family: "SF Mono", "Fira Code", Consolas, monospace; font-size: 8px; fill: #60A5FA; opacity: 0.5; }
  </style>

  <!-- ================= BACKGROUND LAYOUT ================= -->
  <!-- Base background rect -->
  <rect width="100%" height="100%" fill="url(#bgGrad)" rx="16" />

  <!-- Radial Glows -->
  <circle cx="240" cy="150" r="400" fill="url(#glowBlue)" />
  <circle cx="940" cy="460" r="500" fill="url(#glowSoftBlue)" />
  <circle cx="590" cy="305" r="350" fill="url(#glowTeal)" />

  <!-- Grid Pattern Overlay -->
  <rect width="100%" height="100%" fill="url(#grid)" rx="16" />

  <!-- Noise Overlay -->
  <rect width="100%" height="100%" filter="url(#noiseFilter)" rx="16" />

  <!-- Floating background particles (Ice Blue) -->
  <g fill="#38BDF8" opacity="0.3">
    <circle cx="150" cy="480" r="1.5">
      <animate attributeName="cy" values="480;440;480" dur="8s" repeatCount="indefinite" />
      <animate attributeName="opacity" values="0.2;0.7;0.2" dur="8s" repeatCount="indefinite" />
    </circle>
    <circle cx="380" cy="120" r="2">
      <animate attributeName="cy" values="120;90;120" dur="6s" repeatCount="indefinite" />
      <animate attributeName="opacity" values="0.1;0.8;0.1" dur="6s" repeatCount="indefinite" />
    </circle>
    <circle cx="850" cy="540" r="1">
      <animate attributeName="cy" values="540;510;540" dur="10s" repeatCount="indefinite" />
      <animate attributeName="opacity" values="0.3;0.6;0.3" dur="10s" repeatCount="indefinite" />
    </circle>
    <circle cx="1080" cy="180" r="2">
      <animate attributeName="cy" values="180;150;180" dur="7s" repeatCount="indefinite" />
      <animate attributeName="opacity" values="0.2;0.7;0.2" dur="7s" repeatCount="indefinite" />
    </circle>
  </g>

  <!-- ================= LEFT SIDE: CUSTOM PHOTO-ACCURATE ASCII PORTRAIT ================= -->
  <g transform="translate(15, 80)">
    <!-- Standalone group for floating breathing animation -->
    <g>
      <animateTransform attributeName="transform" type="translate" values="0,0; 0,-8; 0,0" dur="6s" repeatCount="indefinite" />
      
      <!-- Hidden background card for layout symmetry -->
      <rect width="430" height="450" fill="rgba(255,255,255,0.005)" rx="12" stroke="rgba(255,255,255,0.015)" stroke-width="1" />

      <!-- Vector Portrait with grid overlay and reveal mask -->
      <g mask="url(#asciiRevealMask)">
        <!-- Technical Grid Overlay (Subtle) -->
        <g opacity="0.03">
          <path d="M 0 50 L 450 50 M 0 100 L 450 100 M 0 150 L 450 150 M 0 200 L 450 200 M 0 250 L 450 250 M 0 300 L 450 300 M 0 350 L 450 350 M 0 400 L 450 400" stroke="#ffffff" stroke-width="0.5" />
          <path d="M 50 0 L 50 450 M 100 0 L 100 450 M 150 0 L 150 450 M 200 0 L 200 450 M 250 0 L 250 450 M 300 0 L 300 450 M 350 0 L 350 450 M 400 0 L 400 450" stroke="#ffffff" stroke-width="0.5" />
          <circle cx="225" cy="225" r="180" fill="none" stroke="#ffffff" stroke-width="0.5" stroke-dasharray="4 8" />
        </g>

        <!-- Bounding Target Vectors -->
        <g stroke="#38BDF8" stroke-width="1" opacity="0.2" fill="none">
          <path d="M 25 45 L 25 25 L 45 25" />
          <path d="M 405 25 L 425 25 L 425 45" />
          <path d="M 25 405 L 25 425 L 45 425" />
          <path d="M 405 425 L 425 425 L 425 405" />
        </g>

        <!-- Technical Labels -->
        <g class="tech-text">
          <text x="35" y="40">SYS.PORTRAIT // N.K.VARMA</text>
          <text x="35" y="415">LOC: 16.5000° N, 80.6400° E</text>
          <text x="415" y="40" text-anchor="end">STATUS: ACTIVE</text>
          <text x="415" y="415" text-anchor="end">OS: FLOW_OS_v0.9.0</text>
        </g>

        <!-- Radial glow behind head -->
        <circle cx="225" cy="210" r="140" fill="url(#glowBlue)" />

        <!-- Face shape -->
        <path class="contour-line contour-primary fill-panel" d="M 165,185 C 165,255 190,305 225,305 C 260,305 285,255 285,185 C 285,160 270,145 225,145 C 180,145 165,160 165,185 Z" />

        <!-- Ear contours -->
        <path class="contour-line contour-secondary" d="M 165,190 C 158,190 155,205 163,212" />
        <path class="contour-line contour-secondary" d="M 285,190 C 292,190 295,205 287,212" />

        <!-- Hair volume -->
        <path class="contour-line contour-primary fill-dark" d="M 152,185 C 145,150 148,105 178,88 C 193,80 215,75 230,85 C 248,78 275,76 292,90 C 304,100 308,120 306,138 C 314,148 312,165 298,185 C 292,192 284,195 284,185 C 284,185 272,162 255,160 C 238,158 228,166 220,166 C 212,166 200,158 185,160 C 168,162 165,185 165,185 Z" />
        
        <!-- Hair contours -->
        <path class="contour-line contour-secondary" d="M 168,135 C 185,108 215,115 230,122" />
        <path class="contour-line contour-secondary" d="M 235,122 C 250,112 280,105 295,125" />
        <path class="contour-line contour-secondary" d="M 185,102 C 205,88 225,92 235,102" />
        <path class="contour-line contour-secondary" d="M 245,102 C 260,88 280,92 292,108" />

        <!-- Sunglasses -->
        <rect class="fill-dark" x="175" y="176" width="42" height="30" rx="5" stroke="#38BDF8" stroke-width="1.8" />
        <rect class="fill-dark" x="233" y="176" width="42" height="30" rx="5" stroke="#38BDF8" stroke-width="1.8" />
        <path class="contour-line" d="M 217,184 L 233,184" stroke-width="2.5" />
        <path d="M 180,181 L 192,201" stroke="#F8FAFC" stroke-width="1.5" stroke-linecap="round" opacity="0.3" />
        <path d="M 238,181 L 250,201" stroke="#F8FAFC" stroke-width="1.5" stroke-linecap="round" opacity="0.3" />

        <!-- Nose -->
        <path class="contour-line contour-secondary" d="M 225,206 L 225,224 Q 225,227 221,227" />

        <!-- Mustache -->
        <path class="contour-line" d="M 205,238 Q 225,232 245,238 M 210,240 Q 225,235 240,240" stroke-width="1.5" />
        
        <!-- Closed mouth -->
        <path class="contour-line contour-secondary" d="M 214,252 Q 225,255 236,252" />

        <!-- Jaw stubble -->
        <path class="contour-line contour-stubble" d="M 175,220 C 175,255 195,290 225,290 C 255,290 275,255 275,220" />

        <!-- Neck -->
        <path class="contour-line contour-secondary" d="M 195,285 L 195,310 M 255,285 L 255,310" />

        <!-- Collar striped shirt -->
        <path class="contour-line contour-primary fill-dark" d="M 192,305 L 175,345 L 210,355 L 225,325 L 240,355 L 275,345 L 258,305 Z" />
        <path class="contour-line contour-secondary" d="M 212,305 L 225,325 L 238,305" />
        <path class="contour-line contour-primary fill-panel" d="M 155,345 C 135,365 110,410 110,425 L 340,425 C 340,410 315,365 295,345 Z" />
        
        <line class="contour-line contour-secondary" x1="145" y1="365" x2="135" y2="425" stroke-dasharray="4 4" />
        <line class="contour-line contour-secondary" x1="180" y1="350" x2="175" y2="425" stroke-dasharray="4 4" />
        <line class="contour-line contour-secondary" x1="210" y1="357" x2="210" y2="425" stroke-dasharray="4 4" />
        <line class="contour-line contour-secondary" x1="240" y1="357" x2="240" y2="425" stroke-dasharray="4 4" />
        <line class="contour-line contour-secondary" x1="270" y1="350" x2="275" y2="425" stroke-dasharray="4 4" />
        <line class="contour-line contour-secondary" x1="305" y1="365" x2="315" y2="425" stroke-dasharray="4 4" />

        <!-- Crossed arms -->
        <path class="contour-line contour-primary fill-panel" d="M 100,415 C 100,415 150,380 225,380 C 300,380 350,415 350,415 L 340,448 L 110,448 Z" />
        <path class="contour-line contour-primary" d="M 108,422 C 160,398 220,398 260,412" />
        <path class="contour-line contour-primary" d="M 342,422 C 290,398 230,398 190,412" />
        <path class="contour-line contour-secondary" d="M 130,435 Q 225,415 320,435" />
      </g>

      <!-- Laser scanline sweep -->
      <line x1="20" y1="0" x2="410" y2="0" stroke="#38BDF8" stroke-width="1.2" filter="url(#glow)" opacity="0">
        <animate attributeName="y1" values="20;430" dur="4.5s" repeatCount="indefinite" />
        <animate attributeName="y2" values="20;430" dur="4.5s" repeatCount="indefinite" />
        <animate attributeName="opacity" values="0;0.5;0.5;0" keyTimes="0;0.1;0.9;1" dur="4.5s" repeatCount="indefinite" />
      </line>
    </g>
  </g>

  <!-- ================= RIGHT SIDE: GLASS TERMINAL ================= -->
  <g mask="url(#terminalReveal)">
    <!-- Main glass panel with backdrop blur -->
    <rect x="480" y="40" width="660" height="530" rx="12" fill="#0F172A" fill-opacity="0.80" stroke="rgba(255, 255, 255, 0.08)" stroke-width="1" />

    <!-- Terminal Header / Titlebar -->
    <g>
      <!-- Mac Window Controls -->
      <circle cx="505" cy="65" r="6" fill="#EF4444" />
      <circle cx="525" cy="65" r="6" fill="#F59E0B" />
      <circle cx="545" cy="65" r="6" fill="#14B8A6" />
      
      <!-- Center Title -->
      <text x="810" y="70" fill="#94A3B8" class="font-mono" font-size="12" text-anchor="middle">varma@flow-os: ~</text>
      
      <!-- Separator line -->
      <line x1="480" y1="88" x2="1140" y2="88" stroke="rgba(255, 255, 255, 0.08)" stroke-width="1" />
    </g>

    <!-- Terminal Content Area -->
    <g transform="translate(505, 110)">
      <!-- Hi Greeting -->
      <text x="0" y="15" fill="#E2E8F0" class="font-sans" font-size="16" opacity="0">
        Hi, my name is
        <animate attributeName="opacity" to="1" dur="0.5s" begin="0.4s" fill="freeze" />
      </text>

      <!-- Full Name -->
      <text x="0" y="52" fill="#F8FAFC" class="font-sans" font-size="32" font-weight="800" opacity="0">
        Nagaraju Kishore Varma
        <animate attributeName="opacity" to="1" dur="0.6s" begin="0.6s" fill="freeze" />
      </text>

      <!-- Interactive Typewriter Roles -->
      <g class="font-mono" font-size="16">
        <!-- Role 1 -->
        <g mask="url(#roleMask1)">
          <text x="0" y="90" fill="#38BDF8" font-weight="700">&gt; AI Systems Engineer</text>
        </g>
        <!-- Role 2 -->
        <g mask="url(#roleMask2)">
          <text x="0" y="90" fill="#60A5FA" font-weight="700">&gt; Creator of FLOW OS</text>
        </g>
        <!-- Role 3 -->
        <g mask="url(#roleMask3)">
          <text x="0" y="90" fill="#14B8A6" font-weight="700">&gt; Enterprise AI Architect</text>
        </g>
        <!-- Role 4 -->
        <g mask="url(#roleMask4)">
          <text x="0" y="90" fill="#E2E8F0" font-weight="700">&gt; Full Stack Software Developer</text>
        </g>

        <!-- Typing Blinking Cursor -->
        <rect x="235" y="74" width="8" height="18" fill="#38BDF8" opacity="0">
          <animate attributeName="x" values="210;210;210;210;190;190;210;210;210;290;290;210" keyTimes="0;0.08;0.22;0.24;0.25;0.33;0.47;0.49;0.50;0.58;0.72;1" dur="12s" repeatCount="indefinite" />
          <animate attributeName="fill" values="#38BDF8;#38BDF8;#60A5FA;#60A5FA;#14B8A6;#14B8A6;#E2E8F0;#E2E8F0;#38BDF8" keyTimes="0;0.24;0.25;0.49;0.50;0.74;0.75;0.99;1" dur="12s" repeatCount="indefinite" />
          <animate attributeName="opacity" values="0;1;0;1;0" dur="1s" repeatCount="indefinite" />
        </rect>
      </g>

      <!-- Horizontal divider -->
      <line x1="0" y1="110" x2="610" y2="110" stroke="rgba(255, 255, 255, 0.08)" stroke-width="1" />

      <!-- System Diagnostic Panel -->
      <g transform="translate(0, 130)" class="font-mono" font-size="12">
        <!-- Col 1 -->
        <g opacity="0">
          <animate attributeName="opacity" to="1" dur="0.4s" begin="0.8s" fill="freeze" />
          <text x="0" y="10" fill="#94A3B8">OS:</text>
          <text x="60" y="10" fill="#E2E8F0">macOS Sonoma</text>
        </g>
        <g opacity="0">
          <animate attributeName="opacity" to="1" dur="0.4s" begin="1.0s" fill="freeze" />
          <text x="0" y="30" fill="#94A3B8">Focus:</text>
          <text x="60" y="30" fill="#E2E8F0">AI Systems &amp; RAG</text>
        </g>
        <g opacity="0">
          <animate attributeName="opacity" to="1" dur="0.4s" begin="1.2s" fill="freeze" />
          <text x="0" y="50" fill="#94A3B8">Role:</text>
          <text x="60" y="50" fill="#38BDF8" font-weight="700">Systems Architect</text>
        </g>

        <!-- Col 2 -->
        <g transform="translate(300, 0)">
          <g opacity="0">
            <animate attributeName="opacity" to="1" dur="0.4s" begin="0.9s" fill="freeze" />
            <text x="0" y="10" fill="#94A3B8">Backend:</text>
            <text x="80" y="10" fill="#E2E8F0">Node.js + Python</text>
          </g>
          <g opacity="0">
            <animate attributeName="opacity" to="1" dur="0.4s" begin="1.1s" fill="freeze" />
            <text x="0" y="30" fill="#94A3B8">Frontend:</text>
            <text x="80" y="30" fill="#E2E8F0">React + Next.js</text>
          </g>
          <g opacity="0">
            <animate attributeName="opacity" to="1" dur="0.4s" begin="1.3s" fill="freeze" />
            <text x="0" y="50" fill="#94A3B8">Database:</text>
            <text x="80" y="50" fill="#14B8A6" font-weight="700">PostgreSQL</text>
          </g>
        </g>
      </g>

      <!-- FLOW OS CURRENT BUILD DASHBOARD -->
      <g transform="translate(0, 210)" opacity="0">
        <animate attributeName="opacity" to="1" dur="0.5s" begin="1.5s" fill="freeze" />
        
        <!-- Dashboard Outer -->
        <rect x="0" y="0" width="610" height="120" rx="8" fill="rgba(255, 255, 255, 0.01)" stroke="rgba(255, 255, 255, 0.05)" stroke-width="1" />
        
        <!-- Live Dot (Teal) -->
        <circle cx="20" cy="22" r="4" fill="#14B8A6" class="live-pulse" />
        
        <!-- Title -->
        <text x="32" y="26" fill="#E2E8F0" class="font-mono" font-size="11" font-weight="700" letter-spacing="1">CURRENT BUILD: FLOW OS v0.9.0</text>
        <text x="590" y="26" fill="#94A3B8" class="font-mono" font-size="10" text-anchor="end">ENTERPRISE CORE</text>
        
        <!-- Progress bar label -->
        <text x="20" y="50" fill="#94A3B8" class="font-mono" font-size="10">System Compile &amp; Linking</text>
        
        <!-- Progress Track -->
        <rect x="20" y="58" width="510" height="8" rx="4" fill="rgba(255,255,255,0.06)" />
        
        <!-- Progress Bar Fill -->
        <rect x="20" y="58" width="0" height="8" rx="4" fill="url(#progressGrad)">
          <animate attributeName="width" to="459" dur="1.8s" begin="1.8s" fill="freeze" keyTimes="0;1" calcMode="spline" keySplines="0.4 0 0.2 1" />
        </rect>
        
        <!-- Progress Percent Text (Teal) -->
        <text x="545" y="66" fill="#14B8A6" class="font-mono" font-size="11" font-weight="700" opacity="0">
          90%
          <animate attributeName="opacity" to="1" dur="0.2s" begin="3.6s" fill="freeze" />
        </text>

        <!-- Staged Features Grid -->
        <g transform="translate(20, 85)" class="font-mono" font-size="9" font-weight="700">
          <g fill="#14B8A6" opacity="0">
            <animate attributeName="opacity" to="1" dur="0.3s" begin="3.8s" fill="freeze" />
            <text x="0" y="5">✓ Multi-Agent Core</text>
          </g>
          <g fill="#14B8A6" opacity="0">
            <animate attributeName="opacity" to="1" dur="0.3s" begin="4.0s" fill="freeze" />
            <text x="140" y="5">✓ Knowledge Graph</text>
          </g>
          <g fill="#14B8A6" opacity="0">
            <animate attributeName="opacity" to="1" dur="0.3s" begin="4.2s" fill="freeze" />
            <text x="280" y="5">✓ Executive Intelligence</text>
          </g>
          <g fill="#14B8A6" opacity="0">
            <animate attributeName="opacity" to="1" dur="0.3s" begin="4.4s" fill="freeze" />
            <text x="430" y="5">✓ Enterprise Security</text>
          </g>
        </g>
      </g>

      <!-- TECHNOLOGY STACK BADGES -->
      <g transform="translate(0, 355)" opacity="0">
        <animate attributeName="opacity" to="1" dur="0.5s" begin="2.2s" fill="freeze" />
        
        <!-- Title -->
        <text x="0" y="10" fill="#94A3B8" class="font-mono" font-size="11" font-weight="700" letter-spacing="1">CORE ENTERPRISE ENGINE STACK</text>
        
        <!-- Capsules Row 1 -->
        <g transform="translate(0, 22)">
          <!-- Python -->
          <g class="pill">
            <rect class="pill-bg" x="0" width="60" height="24" rx="12" fill="rgba(255, 255, 255, 0.02)" stroke="rgba(255, 255, 255, 0.08)" stroke-width="1" />
            <text class="pill-text font-mono" x="30" y="15" fill="#94A3B8" font-size="10" text-anchor="middle">Python</text>
          </g>
          <!-- TypeScript -->
          <g class="pill" transform="translate(70, 0)">
            <rect class="pill-bg" x="0" width="80" height="24" rx="12" fill="rgba(255, 255, 255, 0.02)" stroke="rgba(255, 255, 255, 0.08)" stroke-width="1" />
            <text class="pill-text font-mono" x="40" y="15" fill="#94A3B8" font-size="10" text-anchor="middle">TypeScript</text>
          </g>
          <!-- Node.js -->
          <g class="pill" transform="translate(160, 0)">
            <rect class="pill-bg" x="0" width="65" height="24" rx="12" fill="rgba(255, 255, 255, 0.02)" stroke="rgba(255, 255, 255, 0.08)" stroke-width="1" />
            <text class="pill-text font-mono" x="32.5" y="15" fill="#94A3B8" font-size="10" text-anchor="middle">Node.js</text>
          </g>
          <!-- Next.js -->
          <g class="pill" transform="translate(235, 0)">
            <rect class="pill-bg" x="0" width="65" height="24" rx="12" fill="rgba(255, 255, 255, 0.02)" stroke="rgba(255, 255, 255, 0.08)" stroke-width="1" />
            <text class="pill-text font-mono" x="32.5" y="15" fill="#94A3B8" font-size="10" text-anchor="middle">Next.js</text>
          </g>
          <!-- Postgres -->
          <g class="pill" transform="translate(310, 0)">
            <rect class="pill-bg" x="0" width="80" height="24" rx="12" fill="rgba(255, 255, 255, 0.02)" stroke="rgba(255, 255, 255, 0.08)" stroke-width="1" />
            <text class="pill-text font-mono" x="40" y="15" fill="#94A3B8" font-size="10" text-anchor="middle">PostgreSQL</text>
          </g>
          <!-- Docker -->
          <g class="pill" transform="translate(400, 0)">
            <rect class="pill-bg" x="0" width="60" height="24" rx="12" fill="rgba(255, 255, 255, 0.02)" stroke="rgba(255, 255, 255, 0.08)" stroke-width="1" />
            <text class="pill-text font-mono" x="30" y="15" fill="#94A3B8" font-size="10" text-anchor="middle">Docker</text>
          </g>
          <!-- Redis -->
          <g class="pill" transform="translate(470, 0)">
            <rect class="pill-bg" x="0" width="50" height="24" rx="12" fill="rgba(255, 255, 255, 0.02)" stroke="rgba(255, 255, 255, 0.08)" stroke-width="1" />
            <text class="pill-text font-mono" x="25" y="15" fill="#94A3B8" font-size="10" text-anchor="middle">Redis</text>
          </g>
        </g>

        <!-- Capsules Row 2 -->
        <g transform="translate(0, 54)">
          <!-- Multi-Agent AI -->
          <g class="pill">
            <rect class="pill-bg" x="0" width="105" height="24" rx="12" fill="rgba(255, 255, 255, 0.02)" stroke="rgba(255, 255, 255, 0.08)" stroke-width="1" />
            <text class="pill-text font-mono" x="52.5" y="15" fill="#94A3B8" font-size="10" text-anchor="middle">Multi-Agent AI</text>
          </g>
          <!-- Hybrid RAG -->
          <g class="pill" transform="translate(115, 0)">
            <rect class="pill-bg" x="0" width="90" height="24" rx="12" fill="rgba(255, 255, 255, 0.02)" stroke="rgba(255, 255, 255, 0.08)" stroke-width="1" />
            <text class="pill-text font-mono" x="45" y="15" fill="#94A3B8" font-size="10" text-anchor="middle">Hybrid RAG</text>
          </g>
          <!-- Knowledge Graphs -->
          <g class="pill" transform="translate(215, 0)">
            <rect class="pill-bg" x="0" width="125" height="24" rx="12" fill="rgba(255, 255, 255, 0.02)" stroke="rgba(255, 255, 255, 0.08)" stroke-width="1" />
            <text class="pill-text font-mono" x="62.5" y="15" fill="#94A3B8" font-size="10" text-anchor="middle">Knowledge Graphs</text>
          </g>
          <!-- Distributed Systems -->
          <g class="pill" transform="translate(350, 0)">
            <rect class="pill-bg" x="0" width="130" height="24" rx="12" fill="rgba(255, 255, 255, 0.02)" stroke="rgba(255, 255, 255, 0.08)" stroke-width="1" />
            <text class="pill-text font-mono" x="65" y="15" fill="#94A3B8" font-size="10" text-anchor="middle">Distributed Systems</text>
          </g>
        </g>
      </g>
    </g>
  </g>

  <!-- ================= CANVAS BORDER & CORNER EFFECTS ================= -->
  <!-- Outer Border with animated gradient shimmer -->
  <rect x="0.5" y="0.5" width="1179" height="609" rx="16" fill="none" stroke="url(#borderShimmer)" stroke-width="1.5" />
</svg>
